<svg xmlns="http://www.w3.org/2000/svg" width="100" height="100" viewBox="0 0 100 100">
  <g>
    <path d="M50,0a50,50,0,1,0,50,50A50,50,0,0,0,50,0Zm-.16,31.1027a2.8536,2.8536,0,0,1,1.0714.3993.9716.9716,0,0,0,1.2233-.2547,4.6435,4.6435,0,0,1,2.1236-1.34,2.7168,2.7168,0,0,1,2.1176.0758c.0678.0367.1146.04.1619.0029a1.57,1.57,0,0,1,1.123-.1864,1.94,1.94,0,0,0,1.1164-.5065,2.73,2.73,0,0,1,3.5149.3558.9224.9224,0,0,0,.2544.2012c.6519.3145.6368.9286.59,1.4836a20.3777,20.3777,0,0,0,.1016,3.6178,2.6888,2.6888,0,0,0,.486,1.1918c.219.3416.1543.8535.6372,1.0437.1008.04.1126.2173.0981.3434-.0626.5435.2694.9955.3538,1.5093a1.31,1.31,0,0,0,.573.712c.3142.2388.7078.3862.8378.8235.0362.1224.2151.0953.3283.1386a.5567.5567,0,0,1,.1741,1.0076,1.9,1.9,0,0,0-.5.9012,3.9809,3.9809,0,0,1-1.4262,2.5287,12.6289,12.6289,0,0,0-1.7229,1.9257A21.4387,21.4387,0,0,1,60.55,49.6257a1.6121,1.6121,0,0,0-.4143.5476,8.798,8.798,0,0,1-1.4465,1.5577,4.3034,4.3034,0,0,0-.7077.9135,3.9369,3.9369,0,0,1-1.2186,1.311.19.19,0,0,0-.0383.0264c-.5519.6664-1.3187,1.1152-1.8881,1.7281-.612.6586-1.2158,1.3373-1.8325,1.9986a.76.76,0,0,1-.33.2472c-.974.2173-1.4376.99-1.9525,1.7259a12.7531,12.7531,0,0,1-1.56,1.7486c-.0524.0514-.1285.127-.1836.1194-.3618-.05-.4987-.3439-.6067-.6336-.0873-.2344-.1369-.516.1309-.6663a1.1961,1.1961,0,0,1,.63-.2611.8183.8183,0,0,0,.7559-.349c.2679-.35.5863-.6613.8566-1.01a.9378.9378,0,0,0-.1893-1.1483c-.8384-.5471-.9485-.5864-1.8088-.006-.8516.5745-.7893.42-.8,1.463.1685.8341-.5013,1.2772-1.0522,1.754-.216.1868-.4525.3544-.6691.5508a4.07,4.07,0,0,1-1.0673.6993c-.49.2228-.8856.65-1.3891.8978a13.0425,13.0425,0,0,1-2.3843.99c-.6847.184-1.3062.5128-2.0444.64-.6274.1084-1.1358.8258-1.4281,1.4976a3.0362,3.0362,0,0,1-.9259,1.1136.3.3,0,0,1-.4544-.0266c-.21-.2225-.39-.4611-.76-.4512a3.102,3.102,0,0,0-1.8681.4094,2.9469,2.9469,0,0,0-.7708.7961A3.3875,3.3875,0,0,1,29.53,69.44c-.6051-.0859-.9646.4293-1.4286.6822a2.4021,2.4021,0,0,0-.4455.4008,1.957,1.957,0,0,1-2.164.3113c-.0551-.0273-.1363-.0359-.1641-.0795a5.4916,5.4916,0,0,1-1.2644-2.43.5349.5349,0,0,1,.0068-.2314c.2731-.6828.5549-1.3616.8154-2.05.23-.6067.9231-.7309,1.3942-1.0907.5269-.4024.577-.573.35-1.1764a1.6482,1.6482,0,0,1,.141-1.6278,1.3472,1.3472,0,0,0,.1077-1.3645,15.9,15.9,0,0,1-.8375-2.2062c-.2294-1.0044-.3177-1.031.6056-1.6077A20.5491,20.5491,0,0,0,29.252,54.836a1.74,1.74,0,0,1,1.8358-.2032,1.26,1.26,0,0,1,.3447.1342c.5094.3525.8724.028,1.217-.2746a5.0081,5.0081,0,0,0,.7627-.992.5351.5351,0,0,0-.0408-.6468.8336.8336,0,0,1-.0106-.8494,10.5189,10.5189,0,0,1,.61-1.5872A1.3241,1.3241,0,0,0,34.192,49.29c-.0663-.2224.0981-.4369.1957-.5954a1.813,1.813,0,0,0,.2444-1.16,7.0069,7.0069,0,0,1,.2808-2.1508,1.9758,1.9758,0,0,1,.512-.85,9.4824,9.4824,0,0,0,.8125-1.1778,1.2875,1.2875,0,0,0-.4265-1.727,1.37,1.37,0,0,1-.7472-1.3341c.04-.4319.007-.87.0251-1.3047.02-.4761.2391-.5972.6377-.3586a.944.944,0,0,0,.5852.0994.2662.2662,0,0,0,.2792-.2561.3443.3443,0,0,0-.1407-.3681,1.2079,1.2079,0,0,0-.1293-.05c-.9688-.4388-1.1418-.77-1.0015-1.8276a8.1067,8.1067,0,0,0,.0563-1.0686,3.8793,3.8793,0,0,1,1.0687-2.6209c.1615-.1841.2984-.39.444-.588a12.9474,12.9474,0,0,1,2.0125-1.845.8833.8833,0,0,1,1.1125-.0255c.2022.13.38.2146.5946.08a.4681.4681,0,0,1,.726.2383.9573.9573,0,0,0,1.1435.4655A.8772.8772,0,0,1,43.53,31.31c.0592.116.2034.2812.2954.2732.7737-.068,1.419.6244,2.2352.3349a15.2594,15.2594,0,0,0,2.6836-.7886A1.5091,1.5091,0,0,1,49.84,31.1027ZM3.5714,50A46.4816,46.4816,0,0,1,47.9291,3.6239L8.9987,71.7523A46.133,46.133,0,0,1,3.5714,50ZM50,96.4285A46.4215,46.4215,0,0,1,10.9079,75H89.0921A46.4215,46.4215,0,0,1,50,96.4285ZM52.0709,3.6239a46.3977,46.3977,0,0,1,38.93,68.1284Z"/>
    <path d="M18.4443,42.2546,14.7211,40.127l-.771,1.35,3.6857,2.1066a1.6775,1.6775,0,1,1-1.6646,2.913L12.2853,44.39l-.7658,1.34,3.7325,2.133c1.5262.8727,3.1086.5664,4.1884-1.3232S19.99,43.1376,18.4443,42.2546Z"/>
    <polygon points="17.855 34.644 21.755 36.872 16.211 37.52 15.435 38.878 21.643 42.426 22.398 41.105 18.349 38.791 24.089 38.145 24.818 36.869 18.61 33.322 17.855 34.644"/>
    <rect x="22.0607" y="29.5819" width="1.5218" height="7.1505" transform="translate(-17.2896 36.5205) rotate(-60.2539)"/>
    <polygon points="24.503 25.71 23.34 25.045 20.51 29.997 21.674 30.662 22.71 28.847 27.756 31.729 28.516 30.398 23.471 27.515 24.503 25.71"/>
    <polygon points="29.35 23.041 27.039 18.572 26.177 20.08 27.799 23.032 24.422 23.151 23.56 24.659 28.595 24.363 31.136 25.814 31.891 24.493 29.35 23.041"/>
    <path d="M68.6542,21.0813c2.3152-1.3236-.3808-4.5075.6048-5.0715.3719-.2123.8036-.04,1.128.5273a3.07,3.07,0,0,1,.3522,2.1921l1.3874.1817a3.9743,3.9743,0,0,0-.5175-2.9119c-.8344-1.46-2.2-1.8635-3.2331-1.2737-2.3334,1.3344.461,4.4744-.6362,5.1022-.3537.2019-.89.0394-1.3045-.6854a3.1316,3.1316,0,0,1-.2908-2.45L64.7312,16.55a4.0752,4.0752,0,0,0,.5135,3.1857C66.201,21.41,67.5194,21.73,68.6542,21.0813Z"/>
    <polygon points="69.217 23.731 70.621 22.928 72.339 25.931 73.501 25.267 71.784 22.263 73.095 21.514 74.849 24.582 76.012 23.918 73.502 19.529 67.3 23.075 69.809 27.464 70.971 26.799 69.217 23.731"/>
    <path d="M77.5173,31.1926a2.2257,2.2257,0,0,0,.8077-3.2262l-1.6588-2.9011-6.2018,3.546.754,1.32,2.2042-1.26.5532.9672-1.5074,2.4783.8663,1.5154,1.5647-2.7451A2.0509,2.0509,0,0,0,77.5173,31.1926ZM76.2588,27.05l.7925,1.3854a.97.97,0,1,1-1.6741.9574l-.7917-1.3861Z"/>
    <polygon points="82.457 35.197 76.708 36.213 80.496 31.766 79.634 30.259 74.803 36.204 75.749 37.859 83.318 36.704 82.457 35.197"/>
    <rect x="77.3594" y="38.9693" width="7.1439" height="1.5211" transform="translate(-9.0466 45.4142) rotate(-29.7616)"/>
    <path d="M83.4345,46.7527a1.915,1.915,0,0,1-1.7362-.9442,2.3484,2.3484,0,0,1,4.073-2.3287,1.9352,1.9352,0,0,1-.0676,1.9755l1.2067.8161a3.2727,3.2727,0,0,0,.0321-3.4616,3.6966,3.6966,0,1,0-6.4153,3.6687,3.2892,3.2892,0,0,0,3.0078,1.7223Z"/>
    <polygon points="88.783 46.268 82.581 49.814 85.09 54.203 86.252 53.539 84.498 50.47 85.902 49.667 87.619 52.671 88.781 52.007 87.065 49.003 88.375 48.253 90.13 51.322 91.292 50.658 88.783 46.268"/>
    <path d="M26.8251,82.87h1.04l1.3111,2.3709h1.6309L29.3066,82.7a1.9153,1.9153,0,0,0,1.4607-1.9809,2.0782,2.0782,0,0,0-2.2412-2.1513H25.4042v6.6734h1.4209Zm0-3.0519h1.4907a.9056.9056,0,1,1,0,1.8012H26.8251Z"/>
    <polygon points="36.583 83.99 33.281 83.99 33.281 82.48 36.513 82.48 36.513 81.229 33.281 81.229 33.281 79.818 36.583 79.818 36.583 78.568 31.86 78.568 31.86 85.241 36.583 85.241 36.583 83.99"/>
    <path d="M40.9309,85.3611A3.074,3.074,0,0,0,43.7224,83.72L42.5017,83.13a1.7893,1.7893,0,0,1-1.5708.971,2.1937,2.1937,0,0,1,0-4.3826,1.808,1.808,0,0,1,1.5708.9709l1.2207-.6006a3.0543,3.0543,0,0,0-2.7915-1.6309,3.4533,3.4533,0,1,0,0,6.9037Z"/>
    <path d="M47.61,85.3611A3.452,3.452,0,1,0,44.128,81.91,3.3532,3.3532,0,0,0,47.61,85.3611Zm0-5.6431A2.1985,2.1985,0,1,1,45.589,81.91,2.0262,2.0262,0,0,1,47.61,79.718Z"/>
    <polygon points="55.463 85.241 58.035 78.568 56.414 78.568 54.573 83.7 52.722 78.568 51.101 78.568 53.683 85.241 55.463 85.241"/>
    <polygon points="63.394 83.99 60.092 83.99 60.092 82.48 63.324 82.48 63.324 81.229 60.092 81.229 60.092 79.818 63.394 79.818 63.394 78.568 58.671 78.568 58.671 85.241 63.394 85.241 63.394 83.99"/>
    <path d="M66.0442,82.87h1.0407l1.3108,2.3709h1.6309L68.5254,82.7a1.9152,1.9152,0,0,0,1.461-1.9809,2.0782,2.0782,0,0,0-2.2412-2.1513H64.6233v6.6734h1.4209Zm0-3.0519h1.4907a.9056.9056,0,1,1,0,1.8012H66.0442Z"/>
    <polygon points="72.653 85.241 74.074 85.241 74.074 82.51 76.625 78.568 75.005 78.568 73.364 81.249 71.703 78.568 70.082 78.568 72.653 82.51 72.653 85.241"/>
  </g>
</svg>
