<svg xmlns="http://www.w3.org/2000/svg" width="100" height="150" viewBox="0 0 100 150">
  <path d="M100,50A50,50,0,1,0,6.7109,75.009l-.01-.0045L50,150,93.2986,75.0045l-.0095.0045A49.7509,49.7509,0,0,0,100,50Z" fill="#e07a5f"/>
  <g>
    <g>
      <path d="M32.5,20h35A2.5,2.5,0,0,1,70,22.5V80a0,0,0,0,1,0,0H30a0,0,0,0,1,0,0V22.5A2.5,2.5,0,0,1,32.5,20Z" fill="#0f223c"/>
      <circle cx="61.25" cy="50" r="3.75" fill="#e07a5f"/>
    </g>
    <rect x="25" y="80" width="50" height="5" fill="#0f223c" opacity="0.48"/>
  </g>
</svg>
