<svg xmlns="http://www.w3.org/2000/svg" width="100" height="150" viewBox="0 0 100 150">
  <path d="M100,50A50,50,0,1,0,6.7109,75.009l-.01-.0045L50,150,93.2986,75.0045l-.0095.0045A49.7509,49.7509,0,0,0,100,50Z" fill="#04a996"/>
  <g>
    <g>
      <path d="M57.5,80H30V28.9163a2.3248,2.3248,0,0,1,1.31-2.2524l23.9456-6.59A1.7612,1.7612,0,0,1,57.5,21.979Z" fill="#0f223c"/>
      <path d="M53.1,49.7282a3.2673,3.2673,0,0,1-3.0757,3.5268,3.5941,3.5941,0,0,1,0-7.0536A3.2672,3.2672,0,0,1,53.1,49.7282Z" fill="#04a996"/>
    </g>
    <polygon points="70 80 70 32.5 70 27.5 65 27.5 60 27.5 60 32.5 65 32.5 65 80 25 80 25 85 75 85 75 80 70 80" fill="#0f223c" opacity="0.48"/>
  </g>
</svg>
